<svg width="512" height="512" viewBox="0 0 512 512" xmlns="http://www.w3.org/2000/svg">
  <defs>
    <linearGradient id="brainGradient" x1="0%" y1="0%" x2="100%" y2="100%">
      <stop offset="0%" style="stop-color:#4f46e5;stop-opacity:1" />
      <stop offset="100%" style="stop-color:#7c3aed;stop-opacity:1" />
    </linearGradient>
  </defs>
  
  <!-- 배경 -->
  <rect width="512" height="512" rx="80" fill="url(#brainGradient)"/>
  
  <!-- 뇌 모양 -->
  <g transform="translate(256, 256)">
    <!-- 메인 뇌 형태 -->
    <ellipse cx="0" cy="-20" rx="120" ry="100" fill="#ffffff" opacity="0.9"/>
    
    <!-- 뇌 주름 -->
    <path d="M -80 -60 Q -40 -80 0 -60 Q 40 -80 80 -60" stroke="#4f46e5" stroke-width="3" fill="none" opacity="0.7"/>
    <path d="M -70 -30 Q -30 -50 10 -30 Q 50 -50 70 -30" stroke="#4f46e5" stroke-width="3" fill="none" opacity="0.7"/>
    <path d="M -60 0 Q -20 -20 20 0 Q 60 -20 80 0" stroke="#4f46e5" stroke-width="3" fill="none" opacity="0.7"/>
    
    <!-- 뇌파 신호 -->
    <g transform="translate(0, 60)">
      <path d="M -80 0 L -60 -15 L -40 15 L -20 -10 L 0 20 L 20 -15 L 40 10 L 60 -5 L 80 0" 
            stroke="#ffffff" stroke-width="4" fill="none" opacity="0.8"/>
      <path d="M -80 20 L -60 5 L -40 35 L -20 10 L 0 40 L 20 5 L 40 30 L 60 15 L 80 20" 
            stroke="#ffffff" stroke-width="3" fill="none" opacity="0.6"/>
    </g>
  </g>
</svg> 